<svg xmlns="http://www.w3.org/2000/svg" viewBox="0 0 64 64">
  <defs>
    <linearGradient id="flame" x1="0%" y1="0%" x2="0%" y2="100%">
      <stop offset="0%" stop-color="#ffeb3b"/>
      <stop offset="40%" stop-color="#ff9800"/>
      <stop offset="100%" stop-color="#e65100"/>
    </linearGradient>
  </defs>

  <!-- fondo oscuro con bordes redondeados -->
  <rect x="4" y="4" width="56" height="56" rx="12" fill="#111111"/>

  <!-- llama principal -->
  <path
    d="M32 10
       C28 18, 22 22, 22 30
       C22 38, 27 44, 32 48
       C37 44, 42 38, 42 30
       C42 24, 38 20, 35 16
       C34 20, 32 22, 32 24
       C30 22, 29 18, 32 10Z"
    fill="url(#flame)"/>

  <!-- brillo interno -->
  <path
    d="M32 22
       C29 26, 27 29, 27 33
       C27 37, 29.5 40, 32 42
       C34.5 40, 37 37, 37 33
       C37 30, 35.5 28, 34 26
       C33.5 28, 33 29, 33 30
       C32 29, 31.5 26, 32 22Z"
    fill="#ffe082"
    opacity="0.8"/>
</svg>
